<?xml version="1.0" encoding="utf-8"?>
<!-- Generator: Adobe Illustrator 23.1.1, SVG Export Plug-In . SVG Version: 6.00 Build 0)  -->
<svg version="1.1" xmlns="http://www.w3.org/2000/svg" xmlns:xlink="http://www.w3.org/1999/xlink" x="0px" y="0px"
	 viewBox="0 0 500 500" style="enable-background:new 0 0 500 500;" xml:space="preserve">
<style type="text/css">
	.st0{fill:#006AD1;}
	.st1{fill:#FFF6F9;}
	.st2{fill:#DDDDDD;}
	.st3{fill:#00E3F5;}
	.st4{fill:#00CADB;}
	.st5{fill:none;stroke:#1B0000;stroke-width:0.75;stroke-linecap:round;stroke-linejoin:round;stroke-miterlimit:10;}
	.st6{fill:#E2E2E8;stroke:#986CCA;stroke-linecap:round;stroke-linejoin:round;stroke-miterlimit:10;}
	.st7{fill:#FFBB6D;}
	.st8{fill:#EF9F50;}
	.st9{fill:#9C6FD2;}
	.st10{fill:#794EB7;}
	.st11{fill:none;stroke:#FFF6F9;stroke-linecap:round;stroke-linejoin:round;stroke-miterlimit:10;}
	.st12{opacity:0.45;fill:url(#SVGID_1_);}
	.st13{fill:#FFB49C;}
	.st14{fill:#FE2D57;}
	.st15{fill:#DB2651;}
	.st16{fill:#ED8D7B;}
	.st17{fill:#1B0000;}
	.st18{fill:#00E1D7;}
	.st19{fill:#00C1B3;}
	.st20{fill:none;stroke:#00E1D7;stroke-linecap:round;stroke-linejoin:round;stroke-miterlimit:10;}
	.st21{fill:none;stroke:#FFFFFF;stroke-linecap:round;stroke-linejoin:round;stroke-miterlimit:10;}
	.st22{fill:none;stroke:#FFBB6D;stroke-linecap:round;stroke-linejoin:round;stroke-miterlimit:10;}
	.st23{opacity:0.75;fill:url(#SHINE_1_);}
</style>
<g id="BACKGROUND">
	<rect class="st0" width="500" height="500"/>
</g>
<g id="OBJECTS">
	<g id="SCREEN">
		<path class="st1" d="M394.1,456.1H106.3c-5.8,0-10.5-4.7-10.5-10.5V216.8c0-5.8,4.7-10.5,10.5-10.5h287.8
			c5.8,0,10.5,4.7,10.5,10.5v228.8C404.7,451.4,400,456.1,394.1,456.1z"/>
		<path class="st2" d="M404.7,243.8v-20.1c-7.6,5.6-11.7,13.2-11.7,13.2l-7.4,6l9.1,10.4L404.7,243.8z"/>
		<path class="st2" d="M120.8,206.3c-1.9,10.1-1,23.3,8.3,38.5c21.1,34.8,85.4,49.1,129.8,30.2c34-14.5,53.9-45.2,60.3-68.7H120.8z"
			/>
		<path class="st2" d="M404.7,287.6c-2.7-2.9-5.9-5.7-9-7.4c-19.2-11-45.9-14.8-71.9-2.5c-28.6,13.6-43.3,66.8-83.7,64.7
			c-27.1-1.4-32.1-13.1-67.7-13.5c-35.6-0.4-56.2,29.9-56.2,29.9c-5.1,6.3-22.3,31-11.2,62.4h290.8c0,0,5-13.3,9-24V287.6z"/>
		<path class="st2" d="M95.8,240.6v41.9l7.8,6.3l6.9,49.7l8.7-9.5c6.5-29.7-0.2-58.8-8.7-73.3C105.3,246.7,99.4,242.5,95.8,240.6z"
			/>
		<path class="st2" d="M395.6,256.7c0-6.6,0-14.2,0-21c0-11.2,0-20.4,0-20.4c0-2.1-0.8-5.6-1.9-9h-6.2h-30.3h-2.2
			c0.1,2.4,0.5,5.6,1.2,9l0,0c0.1,0.3,0.1,0.5,0.2,0.8c0.4,1.5,0.8,3.1,1.3,4.7c0,0.1,0.1,0.3,0.2,0.4c3.2,9.4,9.8,23.9,17.2,31.9
			c9.3,10,10.7,32.8,10.7,32.8s9.8-10.4,9.8-10.9c0-0.1,0-3.3,0-8.3V256.7z"/>
		
			<rect x="147.3" y="172.9" transform="matrix(-1.836970e-16 1 -1 -1.836970e-16 568.5135 68.0474)" class="st3" width="205.9" height="290.8"/>
		<path class="st4" d="M168.4,247.3c-0.6,22.1,15.3,42.2,30.1,56h0c12.6,11.8,24.5,19,24.5,19s2,18.2,4.6,20.4
			c2.6,2.2,5.3-2.3,7-8.3c1.7-6,3.4-16.3,1.2-17.9c-2.2-1.7-6-2.3-6-2.3s-0.5-0.4-1.4-1.2c-0.1-0.1-0.3-0.3-0.4-0.4
			c-0.7-0.6-1.6-1.5-2.6-2.5c-0.2-0.2-0.4-0.4-0.6-0.6c-0.7-0.7-1.4-1.4-2.1-2.2c-0.6-0.6-1.2-1.3-1.8-2c-0.4-0.4-0.8-0.9-1.2-1.3
			c-0.3-0.3-0.5-0.6-0.8-0.9c-2.7-3.2-5.7-6.9-8.5-11.1c-1-1.4-1.9-2.9-2.8-4.5c-0.9-1.5-1.8-3.1-2.6-4.8c-0.5-1.1-1.1-2.2-1.6-3.3
			c-2-4.5-3.5-9.3-4.2-14.3c-0.7-4.2-0.6-8.3,0.1-12.1c1-6.1,3.6-11.6,6.9-16.5c2.9-4.2,6.4-8,10.1-11.1c5.7-4.8,11.7-8.2,16.6-10.1
			h-54C173,223.8,168.7,234.4,168.4,247.3z"/>
		<path class="st4" d="M278.1,355c3.7-27.2,9.1-74.4,12.6-139.7h-38.9v2.7c0,0,0.4,3.2,0.9,8.8c0,0.1,0,0.2,0,0.3
			c0.1,1.2,0.3,2.6,0.4,4c0,0.1,0,0.2,0,0.3c0.2,2,0.4,4.1,0.7,6.5c0.1,0.7,0.2,1.5,0.2,2.3c0.2,1.8,0.4,3.7,0.6,5.6
			c0,0.1,0,0.3,0,0.4c0.7,6.9,1.4,14.8,2.2,23.3c0,0.2,0,0.3,0,0.5c0.1,1.6,0.3,3.2,0.4,4.8c0,0.2,0,0.3,0,0.5
			c0.3,3.4,0.6,6.9,0.9,10.4c0,0.2,0,0.3,0,0.5c0.1,1.7,0.3,3.4,0.4,5.1c0,0.2,0,0.3,0,0.5c0.3,3.6,0.6,7.3,0.9,11
			c0.1,1,0.2,2.1,0.2,3.1c0.1,1,0.1,1.9,0.2,2.9c0.2,2.8,0.4,5.7,0.6,8.5c0.1,1.1,0.1,2.2,0.2,3.3c0.7,11.5,1.4,23,1.7,33.6
			c0.1,3.5,0.2,6.9,0.3,10.3c0.1,3.4,0.1,6.6,0.1,9.8c0,2.1,0,4.1,0,6.1v0c0,0-2.7,2.7-3.6,5.3c-0.9,2.6,6.2,10.2,10.9,14.2
			c4.7,4.1,9.4,6.3,10.4,3c0.9-3.3-6.7-20.6-6.7-20.6S275.7,372.8,278.1,355z"/>
		<path class="st4" d="M120,215.3c0.1,8.5,2.4,18.5,9.1,29.5c21.1,34.8,85.4,49.1,129.8,30.2c29.8-12.7,48.7-37.8,57.3-59.7H120z"/>
		<path class="st4" d="M395.6,280.3c-19.2-11-45.9-14.8-71.9-2.5c-28.6,13.6-43.3,66.8-83.7,64.7c-27.1-1.4-32.1-13.1-67.7-13.5
			c-35.6-0.4-56.2,29.9-56.2,29.9c-5.1,6.3-8.7,13.6-11.2,20.6v41.7h290.8V280.3z"/>
		<path class="st4" d="M104.8,247.8v49.8l5.7,40.9l8.7-9.5c6.5-29.7-0.2-58.8-8.7-73.3C108.7,252.5,106.7,249.9,104.8,247.8z"/>
		<path class="st4" d="M356.3,215.3c1.7,7.7,9.6,27.8,18.9,37.8c9.3,10,10.7,32.8,10.7,32.8s9.8-10.4,9.8-10.9v-59.7H356.3z"/>
		<g>
			<path class="st5" d="M394.1,456.1H106.3c-5.8,0-10.5-4.7-10.5-10.5V216.8c0-5.8,4.7-10.5,10.5-10.5h287.8
				c5.8,0,10.5,4.7,10.5,10.5v228.8C404.7,451.4,400,456.1,394.1,456.1z"/>
			
				<rect x="147.3" y="172.9" transform="matrix(-1.836970e-16 1 -1 -1.836970e-16 568.5135 68.0474)" class="st5" width="205.9" height="290.8"/>
		</g>
		<path class="st4" d="M116,358.9c4.4-14.8,9.3-30.2,28.7-35.5c19.4-5.4,24.7-20.5,17.4-28.2c-7.3-7.8-22.5-1.6-35.5,17.3
			c-13,18.9-17.1,42.2-15.9,49.7L116,358.9z"/>
		<circle class="st6" cx="250.2" cy="438.1" r="9.2"/>
		
			<ellipse transform="matrix(0.3802 -0.9249 0.9249 0.3802 -32.1068 463.4709)" class="st4" cx="329.7" cy="255.7" rx="10.9" ry="10.9"/>
	</g>
	<g id="SHAPES_3">
		<g>
			<path class="st7" d="M104.8,399.5v-73.9c0,0-2.7-17.1-20.2-32.8c-17.5-15.7-21.1-42.9-5-48.9c16.1-6,32.4,15.9,37,39.4
				s-2.8,86.1-6.4,101.9C106.7,400.9,104.8,399.5,104.8,399.5z"/>
			
				<ellipse transform="matrix(0.6938 -0.7202 0.7202 0.6938 -149.8237 105.4847)" class="st7" cx="49.1" cy="228.9" rx="17.1" ry="17.1"/>
			<path class="st8" d="M110.3,385.1c1-4.6,2.4-13.2,3.7-23.6c-4.1,5.6-7,11.9-9.2,17.9v20C104.8,399.5,106.7,400.9,110.3,385.1z"/>
			<path class="st5" d="M84.8,242.9c14.3-0.4,27.8,19.4,31.9,40.3c4.6,23.5-2.8,86.1-6.4,101.9c-3.6,15.8-5.5,14.4-5.5,14.4v-73.9
				c0,0-1.8-11.4-12-24.1"/>
			<path class="st5" d="M71,271.6c-3.6-11.8-1.5-23.2,7.6-27.3"/>
			<path class="st5" d="M37.7,216.2c-3.5,3.1-5.7,7.7-5.7,12.7c0,9.4,7.6,17.1,17.1,17.1"/>
			<path class="st5" d="M46.4,212.1c-1.6,0.3-3.1,0.8-4.6,1.4"/>
			<path class="st5" d="M66.2,228.9c0-8.6-6.4-15.8-14.7-16.9"/>
		</g>
		<g>
			<path class="st1" d="M110.7,393.1c0,0-6.2-29.1,8.9-61.8s39.2-41,46.3-31.4c7.2,9.6-0.8,23.4-17.7,28.7
				c-16.9,5.3-30,25-31.6,52.9L110.7,393.1z"/>
			<path class="st2" d="M116.7,381.5c0.8-13.2,4.1-24.6,9.2-33.5c-6.4,5.9-9.8,10.9-9.8,10.9c-2.4,2.9-4.4,6-6.1,9.2
				c-1.3,14.9,0.8,25,0.8,25L116.7,381.5z"/>
			<g>
				<path class="st5" d="M155.9,296.2c4.4-0.4,7.9,0.8,10,3.7c3.9,5.2,3.3,11.6-0.7,17.3"/>
				<path class="st5" d="M147.5,298.8c1.3-0.7,2.6-1.2,3.9-1.6"/>
				<path class="st5" d="M119.6,331.2c6.7-14.6,15.3-24.3,23.3-29.8"/>
			</g>
		</g>
	</g>
	<g id="SHAPES_2">
		<g>
			<path class="st1" d="M392.3,289.3c0,0,5.7-21.3,1.9-53.6c-3.9-32.4-8.2-49.2-24-47.3c-15.8,2-10,38.1,1.5,57.9
				c11.6,19.8,12.9,43.8,12.9,43.8L392.3,289.3z"/>
			<path class="st2" d="M388.1,285.4c0.1,1.6,0.3,3,0.4,4.3l3.7-0.4c0,0,5.7-21.3,1.9-53.6C390.8,242.5,385.7,256.3,388.1,285.4z"/>
			<path class="st2" d="M382.2,274.2c2,9.2,2.4,15.9,2.4,15.9l7.7-0.8c0,0,0.9-3.5,1.8-9.9C390.4,277.4,386.4,275.6,382.2,274.2z"/>
			<g>
				<path class="st5" d="M366.5,189.6c-7.1,4.5-7.3,19.3-3.7,34.1"/>
				<path class="st5" d="M395,244.4c-0.2-2.8-0.5-5.8-0.8-8.8c-3.9-32.4-8.2-49.2-24-47.3"/>
			</g>
		</g>
		<g>
			<path class="st7" d="M395.6,292.8c0-0.9,0-28.9,0-28.9s8.6-16.2,29.7-22c26.9-7.4,29.4-22.8,20.8-29.2
				c-8.6-6.4-28.3-1.4-44.8,19.9c-16.4,21.3-8.6,56.4-8.6,56.4L395.6,292.8z"/>
			<path class="st8" d="M392.8,289.1l2.9,3.7c0-0.4,0-6.3,0-12.6c-1.4-0.8-2.9-1.6-4.4-2.3C391.8,284.6,392.8,289.1,392.8,289.1z"/>
			<g>
				<path class="st5" d="M420.5,215.3c-6.3,3.7-13,9.3-19.1,17.3c-16.4,21.3-8.6,56.4-8.6,56.4l2.9,3.7c0-0.9,0-28.9,0-28.9
					s4.2-7.8,13.8-14.6"/>
				<path class="st5" d="M428.6,211.7c-1.4,0.5-2.9,1-4.4,1.7"/>
				<path class="st5" d="M450.6,221c-0.1-3.3-1.7-6.2-4.4-8.2c-3.1-2.3-7.6-3.1-12.9-2.3"/>
			</g>
		</g>
	</g>
	<g id="SHAPES_1">
		<g>
			<path class="st9" d="M104.8,421.2c0,0-11.6-31.7,14.7-57.7c26.2-26,62-33.2,83.8-23.9c21.7,9.3,53.3,21.7,75.3-3.9
				c22-25.5,29.5-58.3,71.7-60.5c49-2.7,68,34.7,69.7,67.6c2.4,46.4-24.3,78.5-24.3,78.5H104.8z"/>
			<path class="st10" d="M268.7,392.3c4.6,4.2,9.2,6.6,10.3,3.4c1.1-3.3-5.9-20.8-5.9-20.8s2.1-9.1,5.2-26.7
				c0.8-4.4,1.6-9.4,2.5-14.9c-0.7,0.9-1.4,1.7-2.1,2.6c-4.9,5.6-10.2,9.4-15.8,11.8c0,3.1,0,6.2-0.1,9.1c-0.1,3.4-0.2,6.6-0.3,9.8
				c-0.1,2.1-0.2,4.1-0.3,6l0,0c0,0-2.8,2.6-3.8,5.1C257.3,380.2,264.1,388,268.7,392.3z"/>
			<g>
				<path class="st5" d="M103.1,394.2c1.7-9.6,6.2-20.6,16.4-30.7c10.1-10,21.7-17.3,33.3-21.8"/>
				<path class="st5" d="M102.3,404.8c0-1.7,0-3.4,0.2-5.2"/>
				<path class="st5" d="M399.2,416.3c-2.2,3.2-3.6,4.9-3.6,4.9H104.8c0,0-1.8-4.8-2.4-12.3"/>
				<path class="st5" d="M339.5,276.5c3.3-0.7,6.8-1.1,10.7-1.3c49-2.7,68,34.7,69.7,67.6c1.7,32.5-10.9,57.9-18.6,70.3"/>
				<path class="st5" d="M329,279.8c2.4-1,4.9-1.9,7.6-2.6"/>
				<path class="st5" d="M173.4,336.3c11.1-1.4,21.5-0.3,29.8,3.3c21.7,9.3,53.3,21.7,75.3-3.9c16.4-19,24.7-42,45.3-53.4"/>
				<path class="st5" d="M161.2,338.8c2.8-0.8,5.6-1.4,8.3-1.9"/>
			</g>
		</g>
		<g>
			<circle class="st9" cx="156.7" cy="150.8" r="21.6"/>
			<g>
				<path class="st5" d="M148.6,130.7c-7.9,3.2-13.5,11-13.5,20"/>
				<path class="st5" d="M178.3,150.8c0-11.9-9.7-21.6-21.6-21.6c-1.1,0-2.2,0.1-3.2,0.2"/>
			</g>
		</g>
		<g>
			<path class="st9" d="M135.1,204.5c-13.2,25.1,9.6,71.2,57.7,80.7c48.1,9.5,103.1-8.9,125.4-47.9c22.3-39,15-62.3,0-68.4
				c-26.2-10.7-50.3,19.9-79.5,24.7C209.5,198.3,157.8,161.3,135.1,204.5z"/>
			<path class="st10" d="M251.9,189.8V218c0,0,0.4,3.2,0.9,8.8c0,0.1,0,0.2,0,0.3c0.1,1.2,0.3,2.6,0.4,4c0,0.1,0,0.2,0,0.3
				c0.2,2,0.4,4.1,0.7,6.5c0.1,0.7,0.2,1.5,0.2,2.3c0.2,1.8,0.4,3.7,0.6,5.6c0,0.1,0,0.3,0,0.4c0.7,6.9,1.4,14.8,2.2,23.3
				c0,0.2,0,0.3,0,0.5c0.1,1.6,0.3,3.2,0.4,4.8c0,0.2,0,0.3,0,0.5c0.2,2.2,0.4,4.4,0.6,6.7c10.4-3.2,20.3-7.6,29.1-13.1
				c1.7-20.9,3.2-44.6,4.4-71c0.3-7.4,0.7-15.7,1-24.4c0,0,0,0,0,0c0-0.2,0-0.5,0-0.7c0-1.1,0.1-2.2,0.1-3.3
				C279.5,174.1,266.2,184,251.9,189.8z"/>
			<path class="st10" d="M237.4,193.7c-6.8,0.8-14.7-0.4-23.2-2.3c-0.1,0.6-0.3,1.2-0.4,1.8c0,0-41.3,17.9-42.4,59
				c-0.3,10.4,3.1,20.3,8.2,29.3c4.2,1.5,8.6,2.8,13.2,3.7c4.9,1,9.9,1.6,14.9,2c-0.5-1-1-2-1.4-3c-2-4.5-3.5-9.3-4.2-14.3
				c-0.7-4.2-0.6-8.3,0.1-12.1c1-6.1,3.6-11.6,6.9-16.5c2.9-4.2,6.4-8,10.1-11.1c6.3-5.4,13.2-9,18.3-10.6V193.7z"/>
			<g>
				<path class="st5" d="M154.7,186c-7.6,2.9-14.4,8.6-19.6,18.5c-7,13.3-3.9,32.5,7.8,49.1"/>
				<path class="st5" d="M163.8,183.7c-1.7,0.2-3.4,0.5-5,0.9"/>
				<path class="st5" d="M299.7,167.4c-19.5,3.9-38.7,22.6-61,26.2c-18.7,3.1-46.7-11-70.3-10.2"/>
				<path class="st5" d="M325.1,223.7c13.5-30.8,6.3-49.4-6.9-54.8c-4.5-1.8-8.9-2.4-13.2-2.2"/>
				<path class="st5" d="M175.8,279.9c5.3,2.3,10.9,4.1,17,5.3c3.2,0.6,6.5,1.2,9.7,1.5"/>
			</g>
		</g>
		<g>
			
				<ellipse transform="matrix(0.9735 -0.2287 0.2287 0.9735 -51.3891 106.6538)" class="st9" cx="434.5" cy="275.1" rx="10.9" ry="10.9"/>
			<path class="st5" d="M430.4,265c-3.7,1.5-6.4,5-6.7,9.2"/>
			<path class="st5" d="M443.2,281.5c1.3-1.8,2.1-4.1,2.1-6.5c0-6-4.9-10.9-10.9-10.9c-0.5,0-1,0-1.5,0.1"/>
		</g>
		<g>
			
				<ellipse transform="matrix(0.7071 -0.7071 0.7071 0.7071 -4.0853 300.1204)" class="st1" cx="360.2" cy="155" rx="14.5" ry="14.5"/>
			<g>
				<path class="st5" d="M361.3,140.5c-0.3,0-0.7,0-1.1,0c-8,0-14.5,6.5-14.5,14.5c0,3,0.9,5.8,2.4,8.1"/>
				<path class="st5" d="M373,162c1.2-2.1,1.8-4.5,1.8-7c0-6.3-4-11.6-9.5-13.6"/>
			</g>
		</g>
		<g>
			
				<ellipse transform="matrix(0.9872 -0.1596 0.1596 0.9872 -37.2574 55.8779)" class="st9" cx="329.1" cy="259.8" rx="10.9" ry="10.9"/>
			<path class="st5" d="M338.8,264.9c0.8-1.5,1.3-3.2,1.3-5.1c0-6-4.9-10.9-10.9-10.9s-10.9,4.9-10.9,10.9c0,0.7,0.1,1.3,0.2,2"/>
		</g>
	</g>
	<g id="LIGHT_EFFECT">
		<ellipse class="st11" cx="250.2" cy="402.4" rx="75.9" ry="7.7"/>
		<line class="st11" x1="212.4" y1="365.4" x2="212.4" y2="399.5"/>
		<line class="st11" x1="302.2" y1="283.9" x2="302.2" y2="401.1"/>
		<g>
			<line class="st11" x1="190.1" y1="334.2" x2="190.1" y2="402.5"/>
			<path class="st11" d="M192.2,326.3c0-1.1-0.9-2.1-2.1-2.1c-1.1,0-2.1,0.9-2.1,2.1c0,1.1,0.9,2.1,2.1,2.1
				C191.3,328.3,192.2,327.4,192.2,326.3z"/>
		</g>
		<g>
			<line class="st11" x1="288.9" y1="356.4" x2="288.9" y2="399.5"/>
			<path class="st11" d="M291,349.2c0-1.1-0.9-2.1-2.1-2.1c-1.1,0-2.1,0.9-2.1,2.1s0.9,2.1,2.1,2.1C290.1,351.2,291,350.3,291,349.2
				z"/>
		</g>
		<g>
			<line class="st11" x1="317.8" y1="402.4" x2="317.8" y2="349.2"/>
			<path class="st11" d="M319.9,342.5c0-1.1-0.9-2.1-2.1-2.1c-1.1,0-2.1,0.9-2.1,2.1c0,1.1,0.9,2.1,2.1,2.1
				C318.9,344.6,319.9,343.7,319.9,342.5z"/>
		</g>
		<linearGradient id="SVGID_1_" gradientUnits="userSpaceOnUse" x1="250.2331" y1="410.0985" x2="250.2331" y2="291.8205">
			<stop  offset="0" style="stop-color:#FFFFFF"/>
			<stop  offset="0.8311" style="stop-color:#FFFFFF;stop-opacity:0"/>
		</linearGradient>
		<path class="st12" d="M174.4,291.8v110.6c0,4.2,34,7.7,75.9,7.7s75.9-3.4,75.9-7.7V291.8H174.4z"/>
	</g>
	<g id="YOGA_TEACHER">
		<g>
			<path class="st13" d="M269.5,120.1l-16.4,7.5l-16.4-4.5l0,0c-2.7,0.6-5.4,1.2-8.2,2c-1.2,0.3-2.4,0.7-3.6,1l-7.1,10.2l7,11.8
				c0,0,3.7,22.8-3,52.1l24.9,17.5l36-11.6c0.8-18.1,1.6-42.1,2.1-62.8l0,0l2.6-11.2l-7.9-11.1C279.6,121.1,275.9,120.4,269.5,120.1
				L269.5,120.1z"/>
			<g>
				<path class="st14" d="M269.5,120.1l-16.4,7.5l-16.4-4.5c-2.7,0.6-5.4,1.2-8.2,2c-1.2,0.3-2.4,0.7-3.6,1l-7.1,10.2l7,11.8
					c0,0,2.2,13.7,0.1,33.4c10.2,2.6,34.7,7.6,58.7,1.1c0.5-12.9,0.9-26.7,1.1-39.3l0,0l2.6-11.2l-7.9-11.1
					C279.6,121.1,275.9,120.4,269.5,120.1z"/>
				<g>
					<path class="st15" d="M279.6,121.1c0,0-3.6-0.7-10-1l-7.2,3.3c9.4-0.2,17.1,0.6,17.1,0.6s0.7-0.2,1.9-0.5L279.6,121.1z"/>
					<path class="st15" d="M237.6,126.9c2-0.7,4.3-1.3,6.6-1.8l-7.4-2c-2.7,0.6-5.4,1.2-8.2,2c-1.2,0.3-2.4,0.7-3.6,1l-4.3,6.2
						C227.9,130.2,233.9,128.3,237.6,126.9z"/>
				</g>
			</g>
		</g>
		<g>
			<path class="st13" d="M269.5,120.1c-7.5-0.3-18.8,0-32.7,3c2.4,3.9,7.7,9.6,17.6,9.1C263.6,131.7,267.7,125.2,269.5,120.1z"/>
			<path class="st16" d="M236.8,123.1c0.6,1,1.5,2.2,2.5,3.3c8.7-2.7,20.3-3.1,28.7-2.9c0.6-1.1,1.1-2.2,1.5-3.3
				C262,119.8,250.7,120.2,236.8,123.1z"/>
		</g>
		<g>
			<path class="st13" d="M336.9,98.7c6.8-14.8,6.7-32.5,5.5-46.3c0,0,1.1-2.3,1.3-8.1c0,0,3.3-7.3,1.5-8.3c-1.6-0.9-3.8,6.5-3.8,6.5
				s0.7-10.4-1.4-10.6c-2.1-0.2-1.8,10.4-1.8,10.4s-0.6-11.1-2.5-10.8c-1.9,0.3-1.1,8.3-0.9,10.5c-0.3-2.2-1.4-10.5-3.5-10.1
				c-2.3,0.4,0,12,0,12s-3.7-3.6-5.2-2.5c-1.5,1.1,1.1,3.2,2.4,5s0.1,3,1.9,7.2c0,0,3.3,31.5-14.1,46.4c-17.5,14.9-36.7,21-36.7,21
				s-1.8,13.2,5.2,22.2C284.8,143.4,323.6,128,336.9,98.7z"/>
			<path class="st16" d="M325,95.2c11.9-16.8,7-42.5,4.4-52.8c-1.1-0.8-2.5-1.5-3.3-1c-1.5,1.1,1.1,3.2,2.4,5c1.2,1.8,0.1,3,1.9,7.2
				c0,0,3.3,31.5-14.1,46.4c-17.5,14.9-36.7,21-36.7,21s-0.1,1.1-0.2,2.9C279.4,124,309.9,116.7,325,95.2z"/>
			<path class="st5" d="M331.3,44c0,0-3.7-3.6-5.2-2.5c-1.5,1.1,1.1,3.2,2.4,5"/>
			<path class="st5" d="M343.7,44.3c0,0,3.3-7.3,1.5-8.3c-1.6-0.9-3.8,6.5-3.8,6.5s0.7-10.4-1.4-10.6c-2.1-0.2-1.8,10.4-1.8,10.4
				s-0.6-11.1-2.5-10.8c-1.9,0.3-1.1,8.3-0.9,10.5c-0.3-2.2-1.4-10.5-3.5-10.1c-2.3,0.4,0,12,0,12"/>
			<path class="st5" d="M325.9,115.1c4.4-4.8,8.2-10.3,11-16.4c4.2-9.1,5.7-19.3,6-29.1"/>
			<path class="st5" d="M332.1,101c0,0,0,4-4,4.5"/>
			<path class="st5" d="M331.3,44c1.2,1.2,2.4,3.3,2.4,3.3"/>
			<path class="st5" d="M333,43c0,0,3.7-1.1,9.2-0.4"/>
			<g>
				<path class="st14" d="M328.7,59.4l-0.3-3.5c-0.1-0.7,0.5-1.3,1.2-1.3l13-1c0.7-0.1,1.3,0.5,1.3,1.2l0.3,3.5
					c0.1,0.7-0.5,1.3-1.2,1.3l-13,1C329.4,60.6,328.8,60.1,328.7,59.4z"/>
				<path class="st15" d="M330.8,54.5l-1.2,0.1c-0.7,0.1-1.2,0.7-1.2,1.3l0.3,3.5c0.1,0.7,0.7,1.2,1.3,1.2l1.4-0.1L330.8,54.5z"/>
			</g>
		</g>
		<g>
			<path class="st13" d="M119.4,151c0,0-2.3,2.8-1.2,3.7c1.1,1,3.5-1,4.6-2.2c1-1.2,4.8-2.3,6.6-2.1c1.8,0.2,5.7,0,5.7,0V149
				l-7.2-1.8c0,0-3.6,0.7-4,1C123.5,148.5,119.4,151,119.4,151z"/>
			<path class="st13" d="M121.6,153.2c0,0-0.6,2.4,1.3,2.3c2-0.1,2.1-3.4,4.3-4.4c2.3-1,5.5-2.7,5.5-2.7s-0.6-2.1-1.1-2.2
				c-0.5-0.1-4.9,0.7-5,1C126.4,147.5,121.6,153.2,121.6,153.2z"/>
			<path class="st13" d="M125.2,152.7c0,0-0.4,2.2,1.4,2.2c1.8,0,1.6-3.4,4.1-5c2.5-1.5-2-1.9-2.2-1.8
				C128.3,148.3,125.2,152.7,125.2,152.7z"/>
			<path class="st13" d="M225,126.1c-19.1,5.7-47.7,17.4-80.4,17.8c0,0-12.8,0.2-18.9,1.5c-6,1.3-10.9,6.4-10.1,7.6
				c0.9,1.2,5.7-1.2,8-2.8c0,0,2.1-0.6,4,0.1c1.9,0.7,6,0.6,6,0.6s-0.4,2.1-2.7,3.4c-1.8,1-1.7,2.7,0.5,2.5c3.2-0.3,8.8-4.6,8.8-4.6
				s17,3.8,39.8,2.7c22.8-1.1,44.8-6.9,44.8-6.9C230.5,139.2,227.2,130.3,225,126.1z"/>
			<path class="st16" d="M225,126.1c-19.1,5.7-47.7,17.4-80.4,17.8c0,0-12.8,0.2-18.9,1.5c-2.7,0.6-5.2,2-7,3.4
				c5.2-1.7,14.1-3.4,27-2.6c18.4,1.3,59.1-9.1,81.2-15.8C226.2,128.7,225.6,127.3,225,126.1z"/>
			<path class="st5" d="M154.4,154.3c6.8,0.7,15.7,1.1,25.7,0.7c9.7-0.4,19.2-1.8,27-3.1"/>
			<path class="st5" d="M185.9,151.2c0,0,3.5,2,5.9-0.9"/>
			<g>
				<path class="st14" d="M145.9,155.1l-3.5-0.2c-0.7,0-1.2-0.6-1.2-1.3l0.6-10.6c0-0.7,0.6-1.2,1.3-1.2l3.5,0.2
					c0.7,0,1.2,0.6,1.2,1.3l-0.6,10.6C147.2,154.6,146.6,155.1,145.9,155.1z"/>
				<path class="st15" d="M146.7,142l-3.5-0.2c-0.7,0-1.3,0.5-1.3,1.2l-0.1,2.1c1.7,0,3.9,0,6-0.1l0.1-1.6
					C147.9,142.6,147.4,142,146.7,142z"/>
			</g>
			<path class="st5" d="M118.2,153c-0.3,0.7-0.4,1.4,0,1.7c1.1,1,3.5-1,4.6-2.2c0.2-0.2,0.4-0.4,0.7-0.5"/>
			<path class="st5" d="M121.5,153.8c-0.1,0.7,0.1,1.8,1.4,1.7c2-0.1,2.1-3.4,4.3-4.4"/>
			<path class="st5" d="M125.1,153.4c0,0.7,0.2,1.6,1.4,1.6c1.5,0,1.6-2.5,3.2-4.2"/>
			<path class="st5" d="M139.8,144c-4.3,0.2-10.4,0.6-14.1,1.4c-6,1.3-10.9,6.4-10.1,7.6c0.9,1.2,5.7-1.2,8-2.8c0,0,2.1-0.6,4,0.1
				c1.9,0.7,6,0.6,6,0.6s-0.4,2.1-2.7,3.4c-1.8,1-1.7,2.7,0.5,2.5c2.1-0.2,5.1-2,7-3.3"/>
		</g>
		<g>
			<path class="st13" d="M247,109.3v16.1c0,0,10.2-0.2,10.2,0c0,0.2-0.5-20.6-0.5-20.6L247,109.3z"/>
			<path class="st16" d="M256.9,116.8c-0.1-5.6-0.3-12-0.3-12l-9.7,4.5v8.6C249.1,118.5,252.6,118.9,256.9,116.8z"/>
			<path class="st17" d="M237,89.2c0,0,1.1-3.9-1.2-6.9c-4.3-5.6,0-13.8,8.3-8.9c0,0,2.7-7.9,15.3-5c12.6,2.9,14.9,14.4,13.8,21.7
				c0,0-1.1,4.5,0,9.5c1.2,5,0.2,17.8-13.5,12.8c-13.7-5-20.1,2.9-25.5-5C228.8,99.5,237,89.2,237,89.2z"/>
			<path class="st13" d="M237,87.8c0,0-5,20,5.5,26c10.5,6.1,22.5-1.6,24.7-15.7c0,0,10.2-3.9,8.4-9.7c-1.8-5.8-9.4,1.3-9.4,1.3
				S254.6,82.9,237,87.8z"/>
			<path class="st14" d="M237,87.8l0.8-5.3c0,0,14.2-4.6,28.8,2.2l-0.4,5.1L237,87.8z"/>
			<g>
				<line class="st5" x1="269.6" y1="90" x2="272.2" y2="92.1"/>
				<path class="st5" d="M238.3,92.6c0,0,2.1-2.6,4.9,0"/>
				<path class="st5" d="M252.8,93.3c0,0,3-3,5.5,0.4"/>
				<path class="st5" d="M247.6,93.1c0,0-2.2,0.7-1.9,2.1s2.5,0.9,2.5,0.9"/>
				<path class="st5" d="M243.9,101.9c0,0,6,1.9,10.3-2.4"/>
			</g>
			<g>
				<path class="st16" d="M263.3,105.5c0-2-1.7-3.7-3.7-3.7c-2,0-3.7,1.7-3.7,3.7c0,2,1.7,3.7,3.7,3.7
					C261.6,109.2,263.3,107.5,263.3,105.5z"/>
				<path class="st16" d="M242.6,105.5c0-2-1.7-3.7-3.7-3.7c-1.1,0-2.1,0.5-2.7,1.2c0.3,2.1,0.9,4.2,1.9,6.1
					c0.3,0.1,0.6,0.1,0.8,0.1C241,109.2,242.6,107.5,242.6,105.5z"/>
			</g>
		</g>
		<g>
			<path class="st18" d="M269.7,357.4c3.9-28.4,9.7-79.7,13-151.3c-34.4,5-60.9-5.9-60.9-5.9s-39.8,17.2-40.8,56.7
				c-0.6,21.3,14.7,40.6,29,53.8h0h8.9l2.4-10.9l0,0c-4.9-7.4-9.3-16.3-10.8-25.8c-4.1-26.1,20.9-44.3,34-48.4
				c0,0,8.5,75.7,10.4,130.8l7.4,7.1L269.7,357.4z"/>
			<path class="st19" d="M259.6,360.9c-0.3-37.9-4.7-118.1-15.1-135.3c0,0,8.5,75.7,10.4,130.8L259.6,360.9z"/>
			<path class="st19" d="M244.5,225.6c-33.2,2-50,38.7-34.4,67.2c3,5.4,6.3,10.1,9.6,14.1l1.6-7.1c-4.9-7.4-9.3-16.3-10.8-25.8
				C206.4,247.9,231.3,229.7,244.5,225.6z"/>
			<path class="st17" d="M240,321.2c0,0,3.6,0.7,5.7,2.3c2.1,1.6,0.5,11.5-1.1,17.2s-4.2,10.1-6.7,8c-2.5-2.1-4.4-19.6-4.4-19.6
				L240,321.2z"/>
			<path class="st17" d="M255.2,381.5c0,0-2.6,2.6-3.5,5.1c-0.9,2.5,6,9.8,10.5,13.7c4.5,3.9,9.1,6,10,2.9
				c0.9-3.2-6.5-19.8-6.5-19.8L255.2,381.5z"/>
			<path class="st13" d="M221.2,299.9c-2.2,2.8-5.7,6.6-11.3,10.9c12.2,11.3,23.5,18.3,23.5,18.3s5.3-0.4,6.5-7.8
				C240,321.2,229.8,312.7,221.2,299.9z"/>
			<path class="st16" d="M240,321.2c0,0-10.2-8.5-18.8-21.3c-1,1.3-2.2,2.7-3.8,4.3c7.4,9.6,15.6,15.8,21.9,19.6
				C239.6,323,239.8,322.2,240,321.2z"/>
			<path class="st13" d="M254.9,356.4c0.3,9.1,0.4,17.6,0.3,25.1c0,0,3.2,6.8,10.5,1.8c0,0,1.6-8.8,4-25.9
				C263.2,357.8,258.2,357.2,254.9,356.4z"/>
			<path class="st5" d="M217,292.8c-3.1-5.8-5.5-12.1-6.5-18.8c-4.1-26.1,20.9-44.3,34-48.4"/>
			<path class="st5" d="M233.5,329c0,0-11.4-6.9-23.5-18.3c-14.2-13.3-29.5-32.5-29-53.8c0.5-17.9,8.9-31.2,18-40.4"/>
			<path class="st16" d="M255.2,381.5c0,0,1.4,2.9,4.3,3.5c0.1-5.2,0.2-15.2,0-27.8c-1.8-0.2-3.4-0.5-4.7-0.8
				C255.2,365.4,255.3,374,255.2,381.5z"/>
			<path class="st5" d="M265.7,383.3c0,0,1.6-8.8,4-25.9c3.9-28.4,9.7-79.7,13-151.3"/>
		</g>
	</g>
	<g id="GEOMETRY">
		<g>
			<polygon class="st20" points="69.4,116.5 62.8,126.4 50.9,125.5 57.5,115.6 			"/>
			<polygon class="st20" points="50.9,125.5 55.8,135.7 67.7,136.6 62.8,126.4 			"/>
			<polygon class="st20" points="69.4,116.5 62.8,126.4 67.7,136.6 74.4,126.7 			"/>
		</g>
		<g>
			<polygon class="st21" points="368.1,326.7 356.2,327.3 349.8,317.1 361.8,316.6 			"/>
			<polygon class="st21" points="349.8,317.1 344.6,327.2 350.9,337.3 356.2,327.3 			"/>
			<polygon class="st21" points="368.1,326.7 356.2,327.3 350.9,337.3 362.8,336.8 			"/>
		</g>
		<g>
			<polygon class="st22" points="73.2,432.6 62.8,438.4 52.6,432.2 63,426.4 			"/>
			<polygon class="st22" points="52.6,432.2 52.3,443.5 62.5,449.7 62.8,438.4 			"/>
			<polygon class="st22" points="73.2,432.6 62.8,438.4 62.5,449.7 73,443.9 			"/>
		</g>
		<g>
			<polygon class="st22" points="460.8,153.3 448.7,167.3 451.1,146.4 			"/>
			<polygon class="st22" points="440.3,151.5 448.7,167.3 451.1,146.4 			"/>
		</g>
		<g>
			<polygon class="st21" points="38.3,325.3 52.8,313.8 46.6,333.8 			"/>
			<polygon class="st21" points="58.2,330.8 52.8,313.8 46.6,333.8 			"/>
		</g>
		<g>
			<path class="st21" d="M455.1,373c-2.2,0.3-3.5,3.8-3,8s2.7,7.3,4.8,7c2.2-0.3,3.5-3.8,3-8C459.5,375.9,457.3,372.8,455.1,373z"/>
			<polyline class="st21" points="454.1,373.4 437.2,382.8 455.9,387.9 			"/>
		</g>
		<g>
			<path class="st20" d="M384.9,77.6c-1.3,1.7,0.2,5.2,3.5,7.8c3.3,2.6,7,3.3,8.4,1.5c1.3-1.7-0.2-5.2-3.5-7.8
				C390,76.6,386.2,75.9,384.9,77.6z"/>
			<polyline class="st20" points="384.4,78.6 379.1,97.2 395.9,87.6 			"/>
		</g>
		<g>
			<path class="st21" d="M178.2,89.1c3.5-3.5,3.5-9.3,0-12.9c-3.5-3.5-9.3-3.5-12.9,0c-3.5,3.5-3.5,9.3,0,12.9
				C168.9,92.6,174.6,92.6,178.2,89.1z"/>
			<path class="st21" d="M177.8,89.4c-2.7-1.3-5.2-3.1-7.4-5.4c-2.2-2.2-4-4.8-5.4-7.5"/>
		</g>
		<g>
			<circle class="st20" cx="141.2" cy="378.1" r="9.1"/>
			<path class="st20" d="M148,372c-1.3,2.7-3.1,5.2-5.4,7.4c-2.2,2.2-4.8,4-7.5,5.4"/>
		</g>
	</g>
	<g id="DOTS">
		<circle class="st22" cx="103.1" cy="92.9" r="2.5"/>
		<circle class="st22" cx="443.2" cy="437.4" r="2.5"/>
		<circle class="st21" cx="212.4" cy="480.2" r="2.5"/>
		<circle class="st22" cx="440.3" cy="83" r="2.5"/>
		<circle class="st21" cx="370.1" cy="477.7" r="2.5"/>
		<circle class="st20" cx="105.6" cy="467.4" r="2.5"/>
		<path class="st20" d="M295.2,60.6c0-1.4-1.1-2.5-2.5-2.5c-1.4,0-2.5,1.1-2.5,2.5s1.1,2.5,2.5,2.5
			C294.1,63.1,295.2,61.9,295.2,60.6z"/>
		<path class="st20" d="M321.6,143.4c0-1.4-1.1-2.5-2.5-2.5c-1.4,0-2.5,1.1-2.5,2.5c0,1.4,1.1,2.5,2.5,2.5
			C320.5,145.9,321.6,144.8,321.6,143.4z"/>
		<circle class="st21" cx="32.1" cy="393.1" r="2.5"/>
		<circle class="st21" cx="197.8" cy="37.9" r="2.5"/>
		<path class="st20" d="M53.4,50.1c0-1.4-1.1-2.5-2.5-2.5c-1.4,0-2.5,1.1-2.5,2.5c0,1.4,1.1,2.5,2.5,2.5
			C52.2,52.6,53.4,51.5,53.4,50.1z"/>
		<path class="st21" d="M81.2,180.7c0-1.4-1.1-2.5-2.5-2.5c-1.4,0-2.5,1.1-2.5,2.5s1.1,2.5,2.5,2.5C80,183.2,81.2,182.1,81.2,180.7z
			"/>
		<path class="st20" d="M448.2,333.2c0-1.4-1.1-2.5-2.5-2.5c-1.4,0-2.5,1.1-2.5,2.5c0,1.4,1.1,2.5,2.5,2.5
			C447.1,335.7,448.2,334.5,448.2,333.2z"/>
		<circle class="st21" cx="405.7" cy="163.1" r="2.5"/>
		<path class="st22" d="M75.7,372c0-1.4-1.1-2.5-2.5-2.5c-1.4,0-2.5,1.1-2.5,2.5c0,1.4,1.1,2.5,2.5,2.5
			C74.6,374.5,75.7,373.4,75.7,372z"/>
		<circle class="st21" cx="468.6" cy="281.5" r="2.5"/>
		<path class="st21" d="M401.7,40.4c0-1.4-1.1-2.5-2.5-2.5c-1.4,0-2.5,1.1-2.5,2.5s1.1,2.5,2.5,2.5
			C400.6,42.9,401.7,41.8,401.7,40.4z"/>
	</g>
	<linearGradient id="SHINE_1_" gradientUnits="userSpaceOnUse" x1="250" y1="421.2299" x2="250" y2="69.6887">
		<stop  offset="0" style="stop-color:#00F7C1"/>
		<stop  offset="0.8311" style="stop-color:#00F7C1;stop-opacity:0"/>
	</linearGradient>
	<path id="SHINE" class="st23" d="M500,152.1l-3.5-2.5C345.5,43.1,154.9,43.1,4,149.6l-4,2.8v62.8c35.9,73,101.9,206.1,104.8,206.1
		c4.1,0,286.7,0,290.8,0c2.9,0,68.3-131.9,104.4-205.1V152.1z"/>
</g>
</svg>
